# xmcd CD database file
#
# Track frame offsets:
#	150
#	13530
#	26332
#	38962
#	50112
#	61725
#	72790
#	85652
#	97917
#	108325
#	118742
#	131725
#	143447
#	155830
#	167277
#	180297
#	191902
#	205762
#	217747
#	231750
#
# Disc length: 3274 seconds
#
# Revision: 1
# Processed by: cddbd v1.5.2PL0 Copyright (c) Steve Scherf et al.
# Submitted via: CDex 1.70beta2
#
DISCID=020cc814
DTITLE=Ray Charles - Ray Charles
DYEAR=1994
DGENRE=R&B
TTITLE0=Alone In The City
TTITLE1=Can Anyone Ask For More
TTITLE2=Rocking Chair Blues
TTITLE3=Let's Have A Ball
TTITLE4=How Long, How Long Blues
TTITLE5=A Sentitmental Blues
TTITLE6=You Always Miss The Water (When The Well Runs Dry)
TTITLE7=I've Had My Fun (Going Down Slow)
TTITLE8=Sitting On Top Of The World (Now She's Gone)
TTITLE9=Ain't That Fine
TTITLE10=Don't Put All Your Dreams In One Basket
TTITLE11=Ray Charles Blues
TTITLE12=Honey Honey
TTITLE13=She's On The Ball
TTITLE14=Baby Won't You Please Come Home
TTITLE15=If I Give You My Love
TTITLE16=This Love Of Mine
TTITLE17=Can't You See Me Darling
TTITLE18=Someday
TTITLE19=I'm Going Down To The River
EXTD=YEAR: 1994
EXTT0=
EXTT1=
EXTT2=
EXTT3=
EXTT4=
EXTT5=
EXTT6=
EXTT7=
EXTT8=
EXTT9=
EXTT10=
EXTT11=
EXTT12=
EXTT13=
EXTT14=
EXTT15=
EXTT16=
EXTT17=
EXTT18=
EXTT19=
PLAYORDER=
